<?xml version="1.0" encoding="UTF-8"?>
<svg width="372.08" height="372.08" version="1.1" viewBox="0 0 372.08 372.08" xml:space="preserve" xmlns="http://www.w3.org/2000/svg"><g transform="translate(-573.96 -63.962)"><rect x="579.24" y="69.239" width="361.52" height="361.52" ry="101.85" style="fill:none;stroke-linecap:round;stroke-linejoin:round;stroke-width:10.554;stroke:#111111"/><path d="m829.33 341.04c-30.957-4.8159-54.724-32.217-56.245-64.845-0.72976-15.654 3.0807-29.834 11.509-42.829 4.0004-6.1683 14.046-15.888 20.547-19.88 11.06-6.7919 20.389-9.3644 33.864-9.3385 7.5627 0.0148 10.025 0.28145 15.163 1.6436 24.735 6.5575 43.237 26.416 48.743 52.315 1.1818 5.5587 1.9039 16.719 1.2926 19.978l-0.44302 2.3612h-94.744l0.0107 2.096c0.0158 3.4974 1.7992 9.9446 3.904 14.114 5.1108 10.124 15.048 15.554 28.655 15.656 11.502 0.0865 19.285-3.6235 24.507-11.682l2.5797-3.9811 15.639-0.0403c12.66-0.0327 15.639 0.12428 15.639 0.82365 0 0.47518-1.4602 3.7319-3.2448 7.2372-11.437 22.464-32.017 35.942-56.087 36.73-4.0791 0.13357-9.1578-0.0279-11.286-0.35898zm39.017-85.289c0-2.6799-1.9731-9.1154-3.6967-12.057-2.9272-4.996-7.1189-8.8947-12.334-11.472-4.7642-2.3546-5.0114-2.4028-12.312-2.4028-7.008 0-7.6986 0.11896-11.642 2.0059-9.2514 4.4269-14.927 12.132-16.455 22.34l-0.45877 3.0634h56.899zm-252.81-7.8525v-89.343l51.754 0.0118c58.024 0.0132 56.779-0.0737 66.228 4.5842 6.3061 3.1086 13.112 9.4591 16.757 15.637 4.8082 8.1477 6.605 21.058 4.2335 30.419-2.597 10.251-9.1181 19.301-18.75 26.022l-5.4012 3.7686 4.834 0.7798c12.996 2.0965 24.062 12.492 26.675 25.06 1.0306 4.9571 0.8955 22.911-0.21609 28.721-3.7733 19.721-18.463 35.672-38.529 41.835-4.702 1.4443-4.9326 1.451-56.153 1.6492l-51.432 0.19896zm96.123 58.599c7.287-3.4531 11.643-8.2694 14.114-15.606 4.3067-12.784-2.3243-26.624-15.253-31.834-3.6635-1.4764-4.1968-1.5063-30.332-1.6995l-26.603-0.19667v51.736l53.85-0.39961zm-8.7071-77.706c2.0975-0.38775 4.6508-1.1379 5.674-1.667 3.1462-1.627 7.5461-6.1182 9.3392-9.533 1.4536-2.7684 1.7081-4.0635 1.7158-8.7322 8e-3 -4.6998-0.24665-6.0025-1.7837-9.1323-2.0644-4.2039-5.7804-7.8256-10.059-9.8041-2.8622-1.3234-4.0033-1.3859-28.616-1.5674l-25.635-0.18902v41.33h22.776c13.722 0 24.292-0.28025 26.59-0.705zm99.61-49.276v-8.7063h74.165v17.413h-74.165z" style="fill:none;stroke-width:10.554;stroke:#111111"/></g></svg>
