<?xml version="1.0" encoding="UTF-8"?>
<svg width="188.47" height="194.5" version="1.1" viewBox="0 0 188.47 194.5" xml:space="preserve" xmlns="http://www.w3.org/2000/svg"><g transform="translate(-403.42 -401.9)"><rect x="405.92" y="404.4" width="183.47" height="189.5" ry="50" style="fill:#f5f5f5;stroke-linecap:round;stroke-linejoin:round;stroke-width:5;stroke:#f5f5f5"/><path d="m552.66 550.89a17.353 17.353 0 0 1-17.353 17.353 17.353 17.353 0 0 1-17.353-17.353 17.353 17.353 0 0 1 17.353-17.353 17.353 17.353 0 0 1 17.353 17.353zm-49.629-126.46v104.2a11.948 11.948 0 0 1-0.79365 0.79305 11.948 11.948 0 0 1-1.3644 1.0216 11.948 11.948 0 0 1-1.4962 0.81741 11.948 11.948 0 0 1-1.5973 0.5957 11.948 11.948 0 0 1-1.666 0.36245 11.948 11.948 0 0 1-1.7003 0.12155 11.948 11.948 0 0 1-4.5722-0.90981 11.948 11.948 0 0 1-3.8759-2.5896 11.948 11.948 0 0 1-2.5902-3.8765 11.948 11.948 0 0 1-0.90981-4.5722v-13.756h-39.805v31.712a35.511 35.511 0 0 0 0.88984 7.9017 35.511 35.511 0 0 0 2.6264 7.5057 35.511 35.511 0 0 0 4.2306 6.7327 35.511 35.511 0 0 0 5.6231 5.6231 35.511 35.511 0 0 0 6.7327 4.2305 35.511 35.511 0 0 0 7.5058 2.6264 35.511 35.511 0 0 0 7.9016 0.88984h30.455a35.511 35.511 0 0 0 7.9016-0.88984 35.511 35.511 0 0 0 7.5058-2.6264 35.511 35.511 0 0 0 2.2598-1.2488 20.217 20.217 0 0 1-1.8077-0.98725 20.217 20.217 0 0 1-2.3092-1.7285 20.217 20.217 0 0 1-2.0401-2.0394 20.217 20.217 0 0 1-1.7284-2.3092 20.217 20.217 0 0 1-1.3825-2.5321 20.217 20.217 0 0 1-1.0078-2.7026 20.217 20.217 0 0 1-0.6132-2.8181 20.217 20.217 0 0 1-0.20625-2.8774 20.217 20.217 0 0 1 0.20625-2.8774 20.217 20.217 0 0 1 0.6132-2.8181 20.217 20.217 0 0 1 1.0078-2.7032 20.217 20.217 0 0 1 1.3825-2.5315 20.217 20.217 0 0 1 1.7284-2.3092 20.217 20.217 0 0 1 2.0401-2.0394 20.217 20.217 0 0 1 2.3092-1.729 20.217 20.217 0 0 1 2.5315-1.3819 20.217 20.217 0 0 1 2.7025-1.0084 20.217 20.217 0 0 1 2.8188-0.6132 20.217 20.217 0 0 1 2.8768-0.2057 20.217 20.217 0 0 1 0.99226 0.022 20.217 20.217 0 0 1 0.98972 0.0731 20.217 20.217 0 0 1 0.98472 0.121 20.217 20.217 0 0 1 0.9779 0.16995 20.217 20.217 0 0 1 0.96789 0.21725 20.217 20.217 0 0 1 0.95662 0.26455 20.217 20.217 0 0 1 0.94226 0.31075 20.217 20.217 0 0 1 0.92543 0.35695 20.217 20.217 0 0 1 0.90733 0.40205 20.217 20.217 0 0 1 0.0775 0.0385v-108.43z" style="fill:#e16969"/></g></svg>
