<?xml version="1.0" encoding="UTF-8"?>
<svg width="701.09" height="701.09" version="1.1" viewBox="0 0 701.09 701.09" xml:space="preserve" xmlns="http://www.w3.org/2000/svg"><g transform="translate(-3419.5 -149.46)"><rect x="3434.5" y="164.46" width="671.09" height="671.09" ry="160.99" style="fill:none;stroke-linecap:round;stroke-linejoin:round;stroke-width:30;stroke:#a7a7a7"/><path d="m3962.4 681.01a60.708 60.708 0 0 1-60.708 60.708 60.708 60.708 0 0 1-60.708-60.708 60.708 60.708 0 0 1 60.708-60.708 60.708 60.708 0 0 1 60.708 60.708zm-173.62-442.39v364.53a41.799 41.799 0 0 1-2.7765 2.7743 41.799 41.799 0 0 1-4.7732 3.5739 41.799 41.799 0 0 1-5.2342 2.8596 41.799 41.799 0 0 1-5.588 2.084 41.799 41.799 0 0 1-5.8283 1.267 41.799 41.799 0 0 1-5.9485 0.426 41.799 41.799 0 0 1-15.995-3.1829 41.799 41.799 0 0 1-13.559-9.0592 41.799 41.799 0 0 1-9.0614-13.562 41.799 41.799 0 0 1-3.1829-15.995v-48.123h-139.25v110.94a124.23 124.23 0 0 0 3.113 27.643 124.23 124.23 0 0 0 9.1881 26.258 124.23 124.23 0 0 0 14.8 23.554 124.23 124.23 0 0 0 19.672 19.672 124.23 124.23 0 0 0 23.554 14.8 124.23 124.23 0 0 0 26.258 9.1881 124.23 124.23 0 0 0 27.643 3.113h106.54a124.23 124.23 0 0 0 27.643-3.113 124.23 124.23 0 0 0 26.258-9.1881 124.23 124.23 0 0 0 7.9058-4.3691 70.726 70.726 0 0 1-6.3242-3.4537 70.726 70.726 0 0 1-8.0784-6.0467 70.726 70.726 0 0 1-7.1369-7.1347 70.726 70.726 0 0 1-6.0467-8.0784 70.726 70.726 0 0 1-4.8366-8.8582 70.726 70.726 0 0 1-3.5258-9.4546 70.726 70.726 0 0 1-2.1452-9.8589 70.726 70.726 0 0 1-0.7209-10.066 70.726 70.726 0 0 1 0.7209-10.066 70.726 70.726 0 0 1 2.1452-9.8588 70.726 70.726 0 0 1 3.5258-9.4568 70.726 70.726 0 0 1 4.8366-8.8561 70.726 70.726 0 0 1 6.0467-8.0783 70.726 70.726 0 0 1 7.1369-7.1348 70.726 70.726 0 0 1 8.0784-6.0489 70.726 70.726 0 0 1 8.856-4.8343 70.726 70.726 0 0 1 9.4546-3.528 70.726 70.726 0 0 1 9.861-2.1453 70.726 70.726 0 0 1 10.064-0.7187 70.726 70.726 0 0 1 3.4712 0.085 70.726 70.726 0 0 1 3.4625 0.2557 70.726 70.726 0 0 1 3.445 0.4238 70.726 70.726 0 0 1 3.421 0.5941 70.726 70.726 0 0 1 3.386 0.7602 70.726 70.726 0 0 1 3.3467 0.9263 70.726 70.726 0 0 1 3.2964 1.0879 70.726 70.726 0 0 1 3.2375 1.2496 70.726 70.726 0 0 1 3.1741 1.4068 70.726 70.726 0 0 1 0.2709 0.1354v-379.34z" style="fill:#e16969"/></g></svg>
