<?xml version="1.0" encoding="UTF-8"?>
<svg width="369.4" height="365.15" version="1.1" viewBox="0 0 369.4 365.15" xml:space="preserve" xmlns="http://www.w3.org/2000/svg"><g transform="translate(-2105.3 -67.427)"><path d="m2409.9 346.37c-1.7291-10.294 15.839-16.294 26.248-17.077 8.044-0.60513 16.817 3.859 22.031 10.014 1.6693 1.9705 3.3513 5.2817 2.0028 7.4842-4.6528 7.5995-17.232 5.7356-26.142 5.5868-8.2909-0.1385-22.766 2.1689-24.139-6.0085zm-7.2492 25.472c-2.2751 0.60957-6.337 9.204-3.4981 14.121 2.2603 3.9147 8.3302 4.8776 12.826 4.4048 2.7546-0.28976 6.4211-1.5964 7.1252-4.2752 0.5504-2.0933-2.6971-7.1431-5.4411-9.5869-2.9768-2.6512-9.5108-5.0661-11.012-4.6639zm-200.28-10.389c-6.4591-5.9963-30.556-6.0976-38.37 4.7435-2.3533 3.265-0.1678 8.8194 2.5299 11.806 3.2922 3.6448 9.2138 5.5454 14.02 4.5327 10.179-2.1448 26.045-17.161 21.82-21.082zm88.009-291.91c-0.324-0.0043-0.644-0.0013-0.9602 0.01-10.172 0.36063-26.248 10.003-26.636 10.248-27.808 17.781-102.98 97.512-139.51 139.91-15.1 17.526-22.195 32.762-8.843 38.322 41.089 17.111 76.599 25.377 74.21 29.515-5.6642 9.8107-37.69 22.98-36.298 28.175 3.7946 14.162 80.896 30.831 82.893 38.286 2.6816 10.008-0.5608 7.8377-12.61 28.41-9.3532 15.97 26.66 11.038 36.331 20.247 5.7721 5.4962 3.5553 17.155 10.131 21.659 6.1841 4.2355 15.281 7.6369 22.435 5.399 24.565-7.6848 43.834-4.482 47.972-20.942 1.6245-6.4618-14.465-8.2291-13.425-14.81 3.3528-21.211 30.534-17.424 55.881-32.058 6.39-3.6893 16.173-14.085 11.118-19.14-12.718-12.717-23.428-10.526-34.33-26.096-4.8695-6.9546 63.345-21.087 108.82-52.53 9.4845-6.5578 4.5792-19.46-7.1401-33.849-37.036-45.472-123.58-142.42-146.55-153.29 0 0-13.443-7.3402-23.485-7.4727zm-0.8894 30.284c0.585 0 1.2523 0.10902 1.9946 0.31953 0.7422 0.21049 1.5595 0.52315 2.4475 0.93058 0.888 0.40742 1.8467 0.9097 2.8691 1.5005 1.0225 0.59077 2.109 1.2703 3.2546 2.0308 1.1457 0.76052 2.3497 1.6016 3.607 2.5184 1.2574 0.91671 2.5687 1.9087 3.9266 2.968 2.7159 2.1186 5.62 4.5094 8.6701 7.1169 3.0502 2.6075 6.2462 5.432 9.5397 8.4198 3.2938 2.9878 6.6859 6.1387 10.133 9.3981 3.4471 3.2594 6.9477 6.628 10.457 10.05 3.5095 3.4224 7.0282 6.8981 10.51 10.375 6.9632 6.9534 13.78 13.908 20.089 20.427 6.3085 6.5188 12.109 12.603 17.039 17.818 9.8596 10.43 9.6774 9.0349 9.6774 9.0349l-42.943 12.99-22.826-28.662-55.89 39.88-19.923-64.645-26.177 55.926-78.535 6e-3s7.6443-10.754 18.508-21.519c5.4319-5.3824 11.817-11.661 18.753-18.389 6.9362-6.728 14.423-13.904 22.056-21.081 3.8163-3.5883 7.6691-7.177 11.508-10.709 3.839-3.5322 7.6633-7.0075 11.424-10.372 3.7604-3.364 7.4572-6.6159 11.038-9.6995 3.5813-3.0836 7.0474-6.0003 10.348-8.6915 3.301-2.6912 6.4371-5.1576 9.3568-7.3442 1.4599-1.0933 2.8659-2.1158 4.2116-3.0619 1.3456-0.94612 2.6303-1.8158 3.8492-2.6007 1.2188-0.78493 2.3712-1.4853 3.4506-2.0951 1.0792-0.60973 2.0851-1.1294 3.0123-1.5499s1.7757-0.74298 2.5382-0.96024c0.7625-0.21725 1.4392-0.32941 2.0243-0.32941zm-74.709 192.15c1.4833 0.0898 6.0554 0.31005 12.289 0.74446 3.1165 0.21723 6.6493 0.48923 10.418 0.82354 3.7681 0.3343 7.7717 0.73196 11.834 1.204 4.0623 0.47204 8.1839 1.0183 12.183 1.6487 3.9994 0.6304 7.8779 1.345 11.457 2.1544 1.7897 0.40468 3.5032 0.83303 5.1207 1.2864 1.6175 0.4533 3.1386 0.93171 4.5394 1.4362 1.4007 0.50451 2.6818 1.0344 3.8211 1.5927s2.1363 1.1444 2.9696 1.7591c0.2832 0.20887 0.5054 0.43354 0.6704 0.67034 0.165 0.23681 0.2736 0.48651 0.3311 0.74612 0.056 0.25961 0.064 0.52814 0.024 0.80542-0.04 0.27726-0.1255 0.56173-0.252 0.85152-0.2529 0.57957-0.6687 1.18-1.2057 1.7788-0.5368 0.59883-1.195 1.1969-1.932 1.7739-0.7369 0.57696-1.5529 1.1331-2.4063 1.6471-0.8533 0.51398-1.743 0.98514-2.6287 1.395-0.8858 0.40991-1.768 0.75812-2.6024 1.0228-0.8344 0.2647-1.6213 0.44701-2.3207 0.5254-0.8285 0.0929-1.7737 0.12596-2.8197 0.10544-1.046-0.0206-2.1927-0.0954-3.4243-0.21906-2.4632-0.24722-5.2664-0.69073-8.2814-1.288-3.0148-0.59727-6.2411-1.3476-9.5529-2.212s-6.7094-1.842-10.064-2.8906-6.6663-2.1689-9.8082-3.3188-6.1136-2.3301-8.7886-3.4983c-2.6751-1.1683-5.053-2.3238-7.0066-3.4275-0.977-0.55186-1.8471-1.0906-2.5959-1.6108-0.7487-0.52018-1.3757-1.0223-1.8644-1.5005-0.264-0.25829-0.3689-0.64296-0.3558-1.0739 0.013-0.43094 0.1448-0.90887 0.3558-1.3506 0.211-0.44173 0.5005-0.8475 0.8301-1.1381 0.3295-0.29062 0.6987-0.46538 1.0674-0.44305z" style="fill:#111111;stroke-linecap:round;stroke-linejoin:round;stroke-width:4.2165;stroke:#111111"/></g></svg>
