<?xml version="1.0" encoding="UTF-8"?>
<svg width="372.42" height="372.42" version="1.1" viewBox="0 0 372.42 372.42" xml:space="preserve" xmlns="http://www.w3.org/2000/svg"><g transform="translate(-63.791 -63.791)"><path transform="matrix(1.0554 0 0 1.0554 -87.633 59.914)" d="m319.9 101.77a78.33 78.33 0 0 1 5.8546 0.22026 78.33 78.33 0 0 1 5.8196 0.65464 78.33 78.33 0 0 1 5.7558 1.089 78.33 78.33 0 0 1 5.659 1.5172 78.33 78.33 0 0 1 5.5273 1.9351 78.33 78.33 0 0 1 5.3708 2.3427 78.33 78.33 0 0 1 5.1774 2.7359 78.33 78.33 0 0 1 4.9612 3.1167 78.33 78.33 0 0 1 4.7121 3.479 78.33 78.33 0 0 1 4.4404 3.8207 78.33 78.33 0 0 1 4.1419 4.1419 78.33 78.33 0 0 1 3.8207 4.4404 78.33 78.33 0 0 1 3.479 4.7121 78.33 78.33 0 0 1 3.1167 4.9612 78.33 78.33 0 0 1 2.7359 5.1773 78.33 78.33 0 0 1 2.3427 5.3708 78.33 78.33 0 0 1 1.9351 5.5273 78.33 78.33 0 0 1 1.5172 5.659 78.33 78.33 0 0 1 1.089 5.7558 78.33 78.33 0 0 1 0.65463 5.8196 78.33 78.33 0 0 1 0.22027 5.8546 78.33 78.33 0 0 1-1.9639 17.43 78.33 78.33 0 0 1-5.7949 16.557 78.33 78.33 0 0 1-9.3316 14.851 78.33 78.33 0 0 1-12.403 12.403 78.33 78.33 0 0 1-14.851 9.3316 78.33 78.33 0 0 1-16.557 5.7949 78.33 78.33 0 0 1-17.43 1.9639 78.33 78.33 0 0 1-17.43-1.9639 78.33 78.33 0 0 1-16.557-5.7949 78.33 78.33 0 0 1-14.851-9.3316 78.33 78.33 0 0 1-12.403-12.403 78.33 78.33 0 0 1-9.3316-14.851 78.33 78.33 0 0 1-5.7949-16.557 78.33 78.33 0 0 1-1.9639-17.43 78.33 78.33 0 0 1 1.9639-17.43 78.33 78.33 0 0 1 5.7949-16.557 78.33 78.33 0 0 1 9.3316-14.851 78.33 78.33 0 0 1 12.403-12.403 78.33 78.33 0 0 1 14.851-9.3316 78.33 78.33 0 0 1 16.557-5.7949 78.33 78.33 0 0 1 17.43-1.9639z" style="fill:none;stroke-linecap:round;stroke-linejoin:round;stroke-width:10;stroke:#111111"/><path transform="matrix(1.0554 0 0 1.0554 -87.633 59.914)" d="m421.04 61.868a20.919 20.919 0 0 1 1.0273 0.02539 20.919 20.919 0 0 1 1.0234 0.07617 20.919 20.919 0 0 1 1.0195 0.125 20.919 20.919 0 0 1 1.0117 0.17578 20.919 20.919 0 0 1 1.002 0.22461 20.919 20.919 0 0 1 0.98828 0.27344 20.919 20.919 0 0 1 0.97657 0.32227 20.919 20.919 0 0 1 0.95703 0.36914 20.919 20.919 0 0 1 0.93945 0.41602 20.919 20.919 0 0 1 0.91602 0.46289 20.919 20.919 0 0 1 0.89453 0.50586 20.919 20.919 0 0 1 0.86718 0.54883 20.919 20.919 0 0 1 0.83789 0.5918 20.919 20.919 0 0 1 0.81055 0.63086 20.919 20.919 0 0 1 0.77735 0.67188 20.919 20.919 0 0 1 0.74414 0.70703 20.919 20.919 0 0 1 0.70703 0.74414 20.919 20.919 0 0 1 0.67187 0.77734 20.919 20.919 0 0 1 0.63086 0.80859 20.919 20.919 0 0 1 0.5918 0.83984 20.919 20.919 0 0 1 0.54883 0.86719 20.919 20.919 0 0 1 0.50586 0.89453 20.919 20.919 0 0 1 0.46093 0.91602 20.919 20.919 0 0 1 0.41602 0.93945 20.919 20.919 0 0 1 0.37109 0.95703 20.919 20.919 0 0 1 0.32227 0.97461 20.919 20.919 0 0 1 0.27344 0.99023 20.919 20.919 0 0 1 0.22461 1.002 20.919 20.919 0 0 1 0.17578 1.0117 20.919 20.919 0 0 1 0.125 1.0195 20.919 20.919 0 0 1 0.0762 1.0234 20.919 20.919 0 0 1 0.0254 1.0273 20.919 20.919 0 0 1-0.21289 2.9766 20.919 20.919 0 0 1-0.63477 2.916 20.919 20.919 0 0 1-1.043 2.7969 20.919 20.919 0 0 1-1.4297 2.6191 20.919 20.919 0 0 1-1.7891 2.3887 20.919 20.919 0 0 1-2.1113 2.1113 20.919 20.919 0 0 1-2.3887 1.7891 20.919 20.919 0 0 1-2.6191 1.4297 20.919 20.919 0 0 1-2.7969 1.043 20.919 20.919 0 0 1-2.916 0.63477 20.919 20.919 0 0 1-2.9785 0.21289 20.919 20.919 0 0 1-2.9766-0.21289 20.919 20.919 0 0 1-2.916-0.63477 20.919 20.919 0 0 1-2.7969-1.043 20.919 20.919 0 0 1-2.6191-1.4297 20.919 20.919 0 0 1-2.3906-1.7891 20.919 20.919 0 0 1-2.1094-2.1113 20.919 20.919 0 0 1-1.7891-2.3887 20.919 20.919 0 0 1-1.4297-2.6191 20.919 20.919 0 0 1-1.043-2.7969 20.919 20.919 0 0 1-0.63476-2.916 20.919 20.919 0 0 1-0.21289-2.9766 20.919 20.919 0 0 1 0.21289-2.9785 20.919 20.919 0 0 1 0.63476-2.916 20.919 20.919 0 0 1 1.043-2.7969 20.919 20.919 0 0 1 1.4297-2.6191 20.919 20.919 0 0 1 1.7891-2.3887 20.919 20.919 0 0 1 2.1094-2.1113 20.919 20.919 0 0 1 2.3906-1.7891 20.919 20.919 0 0 1 2.6191-1.4297 20.919 20.919 0 0 1 2.7969-1.043 20.919 20.919 0 0 1 2.916-0.63477 20.919 20.919 0 0 1 2.9766-0.21289z" style="fill:none;stroke-linecap:round;stroke-linejoin:round;stroke-width:10;stroke:#111111"/><path transform="matrix(1.0554 0 0 1.0554 -87.633 59.914)" d="m252.34 8.6734c-57.544 0-103.87 46.326-103.87 103.87v135.12c0 57.544 46.326 103.87 103.87 103.87h135.12c57.544 0 103.87-46.326 103.87-103.87v-135.12c0-57.544-46.326-103.87-103.87-103.87z" style="fill:none;stroke-linecap:round;stroke-linejoin:round;stroke-width:10;stroke:#111111"/></g></svg>
