<?xml version="1.0" encoding="UTF-8"?>
<svg width="369.48" height="341.14" version="1.1" viewBox="0 0 369.48 341.14" xml:space="preserve" xmlns="http://www.w3.org/2000/svg"><g transform="translate(-1595.3 -79.429)"><path d="m1838.7 299.46s4.8463-8.3618 7.8572-12.176c2.7736-3.5134 9.496-9.8069 9.496-9.8069m-60.581-7.0511s6.4479-11.448 10.186-16.293c3.5703-4.6263 11.739-12.119 11.739-12.119m21.198 57.446s-43.67 27.144-68.488 27.144c-45.237 0-86.396-30.883-86.396-30.883s9.2469 66.287 83.511 86.144c56.714 15.165 91.474-13.926 91.474-13.926m-255.96-276.42c-6.3828 6.3693 3.0859 16.424 3.0859 16.424s21.283 24.977 98.165 101.7c24.494 24.443 33.1 35.429 53.344 48.319 17.793 11.329 38.737 12.404 38.737 12.404l42.381 28.876s0.4515 7.4932 1.6483 11.005c2.0547 6.0278 6.0343 11.225 9.3002 16.695 4.0577 6.7955 11.288 12.244 12.781 20.013 1.3743 7.1537-4.1044 21.464-4.1044 21.464s20.297-13.61 26.134-23.849c6.1611-10.809 9.0679-24.182 7.5851-36.528-0.952-7.9281-4.9402-15.703-10.287-21.644-4.0723-4.5252-9.6752-8.0585-15.587-9.5398-3.18-0.79684-9.8196 0.5703-9.8196 0.5703l-38.837-35.722s-5.9865-17.638-11.584-24.877c-13.751-17.784-52.022-42.967-52.022-42.967l-131.74-80.948s-11.892-8.6636-19.178-1.3931zm88.913 28.357c28.143-22.032 63.612-35.169 102.16-35.169 91.482 1.4e-5 165.64 74.004 165.64 165.29s-74.16 165.29-165.64 165.29c-91.482 1e-5 -165.64-74.004-165.64-165.29 0-28.581 7.2689-55.467 20.063-78.919" style="fill:none;stroke-linecap:round;stroke-linejoin:round;stroke-width:10.554;stroke:#111111"/></g></svg>
