<?xml version="1.0" encoding="UTF-8"?>
<svg width="372.08" height="372.08" version="1.1" viewBox="0 0 372.08 372.08" xml:space="preserve" xmlns="http://www.w3.org/2000/svg"><g transform="translate(-1084 -63.962)"><rect transform="matrix(1.0554 0 0 1.0554 -70.406 -13.859)" x="1098.7" y="78.733" width="342.53" height="342.53" ry="96.497" style="fill:none;stroke-linecap:round;stroke-linejoin:round;stroke-width:10;stroke:#111111"/><path transform="matrix(1.0554 0 0 1.0554 -70.406 -13.859)" d="m1151.8 290.63 0.1212-81.421h50.546l0.12 81.421 0.1213 81.421h-51.028zm82.376-0.11925v-81.541h48.638v11.206c0 6.1632 0.1748 11.206 0.3885 11.206 0.2138 0 0.7247-0.70495 1.1356-1.5666 2.0947-4.3925 8.8146-11.35 14.927-15.455 9.551-6.4142 19.592-9.2069 33.084-9.2018 19.212 7e-3 32.771 4.7635 42.735 14.99 9.7459 10.004 14.818 24.66 16.43 47.474 0.2846 4.0286 0.4905 27.263 0.4932 55.672l0.013 48.757h-50.546l-4e-4 -44.227c-3e-4 -26.7-0.1955-46.306-0.4927-49.473-1.4936-15.915-6.1667-23.715-16.473-27.496-2.4089-0.88372-3.8372-1.0367-9.7373-1.0431-6.1666-6e-3 -7.3136 0.12526-10.607 1.2203-10.156 3.3766-15.651 10.643-18.319 24.219-0.7023 3.5738-0.818 9.5384-0.9799 50.426l-0.1833 46.373h-50.498zm-64.374-104.68c-15.017-4.1098-24.447-19.528-21.23-34.711 2.3075-10.89 11.61-20.201 22.484-22.505 9.8166-2.0798 19.253 0.71065 26.387 7.8027 3.9567 3.9336 5.9961 7.1144 7.6879 11.991 0.8775 2.5288 1.079 4.153 1.0951 8.8216 0.017 5.0153-0.136 6.1542-1.2402 9.2196-3.1824 8.834-9.929 15.783-18.149 18.694-3.9128 1.3856-13.124 1.757-17.034 0.68691z" style="fill:none;stroke-width:10;stroke:#111111"/></g></svg>
