<?xml version="1.0" encoding="UTF-8" standalone="no"?>
<!-- Created with Inkscape (http://www.inkscape.org/) -->

<svg
   width="1816.5179"
   height="365.66168"
   viewBox="0 0 1816.518 365.66168"
   version="1.1"
   id="svg5"
   xml:space="preserve"
   xmlns="http://www.w3.org/2000/svg"
   xmlns:svg="http://www.w3.org/2000/svg"><defs
     id="defs2"><rect
       x="1450.3724"
       y="222.31009"
       width="716.48132"
       height="158.02765"
       id="rect11561" /></defs><g
     id="g311"
     transform="translate(-1443.428,-320.95706)"
     style="display:inline"><rect
       style="display:inline;opacity:1;fill:#111111;fill-opacity:1;stroke:none;stroke-width:1.75883;stroke-linecap:round;stroke-linejoin:round;stroke-dasharray:none;stroke-opacity:1"
       id="rect971"
       width="1816.5179"
       height="365.66168"
       x="1443.428"
       y="320.95706"
       ry="87.72184" /><path
       id="path11505"
       style="display:inline;fill:#e16969;fill-opacity:1;stroke:none;stroke-width:1.63933;stroke-linecap:round;stroke-linejoin:round;stroke-dasharray:none;stroke-opacity:1"
       d="m 1725.3156,592.24665 a 29.667722,29.667722 0 0 1 -29.6676,29.66772 29.667722,29.667722 0 0 1 -29.6675,-29.66772 29.667722,29.667722 0 0 1 29.6675,-29.66773 29.667722,29.667722 0 0 1 29.6676,29.66773 z m -84.848,-216.19433 v 135.12847 14.85415 1.49672 26.66571 a 20.42687,20.42687 0 0 1 -1.3569,1.3558 20.42687,20.42687 0 0 1 -2.3327,1.74655 20.42687,20.42687 0 0 1 -2.5578,1.39745 20.42687,20.42687 0 0 1 -2.7307,1.01845 20.42687,20.42687 0 0 1 -2.8484,0.6192 20.42687,20.42687 0 0 1 -2.9069,0.20817 20.42687,20.42687 0 0 1 -7.8168,-1.55544 20.42687,20.42687 0 0 1 -6.6266,-4.42721 20.42687,20.42687 0 0 1 -4.4282,-6.62748 20.42687,20.42687 0 0 1 -1.5553,-7.8167 v -9.89745 -13.62001 h -34.4537 -33.5984 v 54.21536 a 60.710373,60.710373 0 0 0 1.5211,13.50902 60.710373,60.710373 0 0 0 4.4902,12.83214 60.710373,60.710373 0 0 0 7.2329,11.51053 60.710373,60.710373 0 0 0 9.6135,9.61344 60.710373,60.710373 0 0 0 11.5105,7.23277 60.710373,60.710373 0 0 0 12.8321,4.49019 60.710373,60.710373 0 0 0 13.5091,1.52129 h 5.9024 1.4403 35.1603 9.5633 a 60.710373,60.710373 0 0 0 13.509,-1.52129 60.710373,60.710373 0 0 0 12.8322,-4.49019 60.710373,60.710373 0 0 0 3.8636,-2.13513 34.563652,34.563652 0 0 1 -3.0908,-1.68782 34.563652,34.563652 0 0 1 -3.9478,-2.95504 34.563652,34.563652 0 0 1 -3.4878,-3.48668 34.563652,34.563652 0 0 1 -2.9551,-3.94785 34.563652,34.563652 0 0 1 -2.3634,-4.32901 34.563652,34.563652 0 0 1 -1.7232,-4.62041 34.563652,34.563652 0 0 1 -1.0483,-4.81794 34.563652,34.563652 0 0 1 -0.3521,-4.91935 34.563652,34.563652 0 0 1 0.3521,-4.91937 34.563652,34.563652 0 0 1 1.0483,-4.81793 34.563652,34.563652 0 0 1 1.7232,-4.62148 34.563652,34.563652 0 0 1 2.3634,-4.32794 34.563652,34.563652 0 0 1 2.9551,-3.94787 34.563652,34.563652 0 0 1 3.4878,-3.48666 34.563652,34.563652 0 0 1 3.9478,-2.9561 34.563652,34.563652 0 0 1 4.328,-2.36253 34.563652,34.563652 0 0 1 4.6203,-1.72411 34.563652,34.563652 0 0 1 4.8191,-1.04836 34.563652,34.563652 0 0 1 4.9183,-0.35123 34.563652,34.563652 0 0 1 1.6964,0.0416 34.563652,34.563652 0 0 1 1.692,0.12493 34.563652,34.563652 0 0 1 1.6835,0.20711 34.563652,34.563652 0 0 1 1.6719,0.29036 34.563652,34.563652 0 0 1 1.6547,0.37153 34.563652,34.563652 0 0 1 1.6356,0.45264 34.563652,34.563652 0 0 1 1.611,0.53166 34.563652,34.563652 0 0 1 1.582,0.61064 34.563652,34.563652 0 0 1 1.5512,0.68752 34.563652,34.563652 0 0 1 0.1328,0.0661 V 376.05232 Z" /><g
       aria-label="oão Akahiiro"
       transform="matrix(3.897267,0,0,3.897267,-3929.6684,-417.47953)"
       id="text11559"
       style="font-weight:bold;font-size:43.9452px;font-family:Rubik;-inkscape-font-specification:'Rubik Bold';white-space:pre;shape-inside:url(#rect11561);display:inline;fill:#f5f5f5;stroke-width:0.420634;stroke-linecap:round;stroke-linejoin:round"><path
         d="m 1463.7763,262.91721 q -3.6914,0 -6.2402,-1.18652 -2.5049,-1.18652 -3.8672,-3.38378 -1.3183,-2.2412 -1.4941,-5.31737 -0.044,-0.8789 -0.044,-1.97753 0,-1.14258 0.044,-1.97754 0.1758,-3.12011 1.582,-5.31737 1.4063,-2.19726 3.9112,-3.38378 2.5488,-1.18652 6.1083,-1.18652 3.6035,0 6.1084,1.18652 2.5488,1.18652 3.9551,3.38378 1.4062,2.19726 1.582,5.31737 0.044,0.83496 0.044,1.97754 0,1.09863 -0.044,1.97753 -0.1758,3.07617 -1.5381,5.31737 -1.3183,2.19726 -3.8671,3.38378 -2.5049,1.18652 -6.2403,1.18652 z m 0,-5.36131 q 1.9776,0 2.8565,-1.18652 0.9228,-1.18652 1.0547,-3.55957 0.044,-0.65917 0.044,-1.7578 0,-1.09863 -0.044,-1.75781 -0.1319,-2.3291 -1.0547,-3.51562 -0.8789,-1.23046 -2.8565,-1.23046 -1.8896,0 -2.8564,1.23046 -0.9229,1.18652 -1.0107,3.51562 -0.044,0.65918 -0.044,1.75781 0,1.09863 0.044,1.7578 0.088,2.37305 1.0107,3.55957 0.9668,1.18652 2.8564,1.18652 z"
         id="path293" /><path
         d="m 1486.6718,262.91721 q -2.3731,0 -4.2627,-0.8789 -1.8457,-0.92285 -2.9443,-2.46093 -1.0987,-1.53809 -1.0987,-3.47167 0,-3.12011 2.5489,-4.92187 2.5488,-1.8457 6.7675,-2.50487 l 5.4932,-0.83496 v -0.61524 q 0,-1.58202 -0.6592,-2.41698 -0.6592,-0.83496 -2.417,-0.83496 -1.2305,0 -2.0215,0.4834 -0.747,0.48339 -1.1865,1.31835 -0.3955,0.57129 -1.0986,0.57129 h -4.9219 q -0.4834,0 -0.747,-0.26367 -0.2637,-0.30762 -0.2198,-0.70312 0,-0.79102 0.5713,-1.80176 0.6152,-1.05468 1.8457,-2.06542 1.2305,-1.01074 3.1641,-1.66992 1.9336,-0.65918 4.7021,-0.65918 2.8125,0 4.834,0.65918 2.0215,0.65918 3.2959,1.8457 1.2744,1.18652 1.8457,2.81249 0.6152,1.58203 0.6152,3.51562 v 13.35934 q 0,0.43945 -0.3516,0.79101 -0.3076,0.30762 -0.747,0.30762 h -5.0977 q -0.4834,0 -0.791,-0.30762 -0.3076,-0.35156 -0.3076,-0.79101 v -1.53808 q -0.5713,0.83496 -1.5381,1.53808 -0.9668,0.70312 -2.2851,1.09863 -1.2745,0.43945 -2.9883,0.43945 z m 2.0654,-5.00975 q 1.2744,0 2.2852,-0.52734 1.0546,-0.57129 1.6259,-1.71387 0.6153,-1.18652 0.6153,-2.94433 v -0.61523 l -3.7354,0.65918 q -2.0654,0.35156 -3.0322,1.09863 -0.9228,0.70312 -0.9228,1.66992 0,0.74707 0.4394,1.27441 0.4395,0.52734 1.1426,0.83496 0.7471,0.26367 1.582,0.26367 z m 3.999,-21.35737 q -1.2304,0 -1.9775,-0.39551 -0.7471,-0.3955 -1.3623,-0.74707 -0.6152,-0.3955 -1.4063,-0.3955 -0.5712,0 -0.8789,0.30761 -0.2636,0.30762 -0.4834,0.65918 -0.2197,0.35156 -0.7031,0.35156 h -2.6367 q -0.3076,0 -0.5273,-0.21972 -0.2198,-0.26367 -0.2198,-0.52734 0,-0.70313 0.2198,-1.62598 0.2636,-0.96679 0.8349,-1.8457 0.5713,-0.8789 1.4942,-1.45019 0.9668,-0.61523 2.3291,-0.61523 1.2304,0 1.9775,0.39551 0.791,0.3955 1.4062,0.79101 0.6153,0.35156 1.3623,0.35156 0.6153,0 0.835,-0.30761 0.2637,-0.35157 0.4834,-0.65918 0.2637,-0.35156 0.7471,-0.35156 h 2.6367 q 0.3515,0 0.5713,0.21972 0.2197,0.21973 0.2197,0.57129 0,0.70312 -0.2637,1.62597 -0.2637,0.92285 -0.8349,1.8457 -0.5713,0.8789 -1.5381,1.45019 -0.9229,0.57129 -2.2852,0.57129 z"
         id="path295" /><path
         d="m 1516.5545,262.91721 q -3.6914,0 -6.2402,-1.18652 -2.5049,-1.18652 -3.8672,-3.38378 -1.3183,-2.2412 -1.4941,-5.31737 -0.044,-0.8789 -0.044,-1.97753 0,-1.14258 0.044,-1.97754 0.1758,-3.12011 1.582,-5.31737 1.4063,-2.19726 3.9111,-3.38378 2.5489,-1.18652 6.1084,-1.18652 3.6035,0 6.1084,1.18652 2.5488,1.18652 3.9551,3.38378 1.4062,2.19726 1.582,5.31737 0.044,0.83496 0.044,1.97754 0,1.09863 -0.044,1.97753 -0.1758,3.07617 -1.5381,5.31737 -1.3183,2.19726 -3.8671,3.38378 -2.5049,1.18652 -6.2403,1.18652 z m 0,-5.36131 q 1.9776,0 2.8565,-1.18652 0.9228,-1.18652 1.0547,-3.55957 0.044,-0.65917 0.044,-1.7578 0,-1.09863 -0.044,-1.75781 -0.1319,-2.3291 -1.0547,-3.51562 -0.8789,-1.23046 -2.8565,-1.23046 -1.8896,0 -2.8564,1.23046 -0.9229,1.18652 -1.0107,3.51562 -0.044,0.65918 -0.044,1.75781 0,1.09863 0.044,1.7578 0.088,2.37305 1.0107,3.55957 0.9668,1.18652 2.8564,1.18652 z"
         id="path297" /><path
         d="m 1539.5818,262.47776 q -0.3516,0 -0.6592,-0.26367 -0.2636,-0.30762 -0.2636,-0.65918 0,-0.21973 0.044,-0.39551 l 10.3271,-28.21282 q 0.1319,-0.48339 0.5274,-0.83496 0.4394,-0.3955 1.1865,-0.3955 h 6.5039 q 0.747,0 1.1426,0.3955 0.4394,0.35157 0.5712,0.83496 l 10.2832,28.21282 q 0.088,0.17578 0.088,0.39551 0,0.35156 -0.3076,0.65918 -0.2637,0.26367 -0.6592,0.26367 h -5.4052 q -0.6592,0 -1.0108,-0.30762 -0.3076,-0.35156 -0.3955,-0.61523 l -1.7139,-4.48241 h -11.7333 l -1.6699,4.48241 q -0.088,0.26367 -0.3955,0.61523 -0.3077,0.30762 -1.0547,0.30762 z m 10.3271,-11.73337 h 8.1738 l -4.0869,-11.60153 z"
         id="path299" /><path
         d="m 1573.4196,262.47776 q -0.4834,0 -0.791,-0.30762 -0.3076,-0.35156 -0.3076,-0.79101 V 232.3753 q 0,-0.4834 0.3076,-0.79102 0.3076,-0.30761 0.791,-0.30761 h 5.0976 q 0.4395,0 0.7471,0.30761 0.3516,0.30762 0.3516,0.79102 v 14.72164 l 6.1083,-6.72362 q 0.2637,-0.30761 0.5713,-0.52734 0.3077,-0.21973 0.8789,-0.21973 h 5.8887 q 0.3955,0 0.6592,0.30762 0.3076,0.26367 0.3076,0.65918 0,0.17578 -0.088,0.39551 -0.044,0.21972 -0.2637,0.35156 l -7.9101,8.52537 9.0088,10.94235 q 0.3515,0.35156 0.3515,0.65918 0,0.43945 -0.3076,0.74707 -0.2637,0.26367 -0.7031,0.26367 h -6.0205 q -0.6592,0 -0.9668,-0.21973 -0.3076,-0.26367 -0.5713,-0.52734 l -6.9433,-8.34959 v 7.99803 q 0,0.43945 -0.3516,0.79101 -0.3076,0.30762 -0.7471,0.30762 z"
         id="path301" /><path
         d="m 1604.4009,262.91721 q -2.373,0 -4.2627,-0.8789 -1.8457,-0.92285 -2.9443,-2.46093 -1.0986,-1.53809 -1.0986,-3.47167 0,-3.12011 2.5488,-4.92187 2.5488,-1.8457 6.7676,-2.50487 l 5.4931,-0.83496 v -0.61524 q 0,-1.58202 -0.6592,-2.41698 -0.6591,-0.83496 -2.4169,-0.83496 -1.2305,0 -2.0215,0.4834 -0.7471,0.48339 -1.1865,1.31835 -0.3955,0.57129 -1.0987,0.57129 h -4.9218 q -0.4834,0 -0.7471,-0.26367 -0.2637,-0.30762 -0.2197,-0.70312 0,-0.79102 0.5713,-1.80176 0.6152,-1.05468 1.8457,-2.06542 1.2304,-1.01074 3.164,-1.66992 1.9336,-0.65918 4.7021,-0.65918 2.8125,0 4.834,0.65918 2.0215,0.65918 3.2959,1.8457 1.2744,1.18652 1.8457,2.81249 0.6152,1.58203 0.6152,3.51562 v 13.35934 q 0,0.43945 -0.3515,0.79101 -0.3076,0.30762 -0.7471,0.30762 h -5.0976 q -0.4834,0 -0.791,-0.30762 -0.3077,-0.35156 -0.3077,-0.79101 v -1.53808 q -0.5712,0.83496 -1.538,1.53808 -0.9668,0.70312 -2.2852,1.09863 -1.2744,0.43945 -2.9883,0.43945 z m 2.0655,-5.00975 q 1.2744,0 2.2851,-0.52734 1.0547,-0.57129 1.626,-1.71387 0.6152,-1.18652 0.6152,-2.94433 v -0.61523 l -3.7353,0.65918 q -2.0655,0.35156 -3.0322,1.09863 -0.9229,0.70312 -0.9229,1.66992 0,0.74707 0.4395,1.27441 0.4394,0.52734 1.1425,0.83496 0.7471,0.26367 1.5821,0.26367 z"
         id="path303" /><path
         d="m 1624.5718,262.47776 q -0.4834,0 -0.791,-0.30762 -0.3076,-0.35156 -0.3076,-0.79101 V 232.3753 q 0,-0.4834 0.3076,-0.79102 0.3076,-0.30761 0.791,-0.30761 h 5.625 q 0.4834,0 0.791,0.30761 0.3076,0.30762 0.3076,0.79102 v 9.79978 q 1.1865,-1.36231 2.9004,-2.15332 1.7578,-0.83496 4.0429,-0.83496 2.5489,0 4.5264,1.14258 2.0215,1.14257 3.1641,3.33983 1.1425,2.19726 1.1425,5.44921 v 12.26071 q 0,0.43945 -0.3076,0.79101 -0.3076,0.30762 -0.791,0.30762 h -5.6689 q -0.4395,0 -0.791,-0.30762 -0.3077,-0.35156 -0.3077,-0.79101 v -11.99704 q 0,-2.06543 -1.0107,-3.16406 -0.9668,-1.14257 -2.8564,-1.14257 -1.8457,0 -2.9444,1.14257 -1.0986,1.09863 -1.0986,3.16406 v 11.99704 q 0,0.43945 -0.3076,0.79101 -0.3076,0.30762 -0.791,0.30762 z"
         id="path305" /><path
         d="m 1653.1362,262.47776 q -0.4834,0 -0.7911,-0.30762 -0.3076,-0.35156 -0.3076,-0.79101 v -20.65425 q 0,-0.48339 0.3076,-0.79101 0.3077,-0.30762 0.7911,-0.30762 h 5.1855 q 0.4834,0 0.791,0.30762 0.3076,0.30762 0.3076,0.79101 v 20.65425 q 0,0.43945 -0.3076,0.79101 -0.3076,0.30762 -0.791,0.30762 z m -0.044,-26.1474 q -0.4834,0 -0.791,-0.30761 -0.3076,-0.30762 -0.3076,-0.79102 v -3.95506 q 0,-0.43946 0.3076,-0.74707 0.3076,-0.35156 0.791,-0.35156 h 5.2734 q 0.4395,0 0.7471,0.35156 0.3516,0.30761 0.3516,0.74707 v 3.95506 q 0,0.4834 -0.3516,0.79102 -0.3076,0.30761 -0.7471,0.30761 z"
         id="path307" /><path
         d="m 1665.7484,262.47776 q -0.4834,0 -0.791,-0.30762 -0.3077,-0.35156 -0.3077,-0.79101 v -20.65425 q 0,-0.48339 0.3077,-0.79101 0.3076,-0.30762 0.791,-0.30762 h 5.1855 q 0.4834,0 0.791,0.30762 0.3076,0.30762 0.3076,0.79101 v 20.65425 q 0,0.43945 -0.3076,0.79101 -0.3076,0.30762 -0.791,0.30762 z m -0.044,-26.1474 q -0.4834,0 -0.791,-0.30761 -0.3076,-0.30762 -0.3076,-0.79102 v -3.95506 q 0,-0.43946 0.3076,-0.74707 0.3076,-0.35156 0.791,-0.35156 h 5.2735 q 0.4394,0 0.747,0.35156 0.3516,0.30761 0.3516,0.74707 v 3.95506 q 0,0.4834 -0.3516,0.79102 -0.3076,0.30761 -0.747,0.30761 z"
         id="path309" /><path
         d="m 1679.679,262.47776 q -0.4834,0 -0.791,-0.30762 -0.3077,-0.35156 -0.3077,-0.79101 v -20.65425 q 0,-0.43945 0.3077,-0.74706 0.3076,-0.35157 0.791,-0.35157 h 5.0537 q 0.4834,0 0.791,0.35157 0.3515,0.30761 0.3515,0.74706 v 1.75781 q 1.1426,-1.3623 2.7686,-2.10937 1.6699,-0.74707 3.7353,-0.74707 h 1.9336 q 0.4834,0 0.791,0.30762 0.3077,0.30762 0.3077,0.79101 v 4.52636 q 0,0.43945 -0.3077,0.79101 -0.3076,0.30762 -0.791,0.30762 h -4.2627 q -1.8017,0 -2.8124,1.01074 -0.9668,0.96679 -0.9668,2.76855 v 11.24997 q 0,0.43945 -0.3516,0.79101 -0.3076,0.30762 -0.791,0.30762 z"
         id="path311" /><path
         d="m 1709.1662,262.91721 q -3.6914,0 -6.2402,-1.18652 -2.5049,-1.18652 -3.8672,-3.38378 -1.3183,-2.2412 -1.4941,-5.31737 -0.044,-0.8789 -0.044,-1.97753 0,-1.14258 0.044,-1.97754 0.1758,-3.12011 1.582,-5.31737 1.4063,-2.19726 3.9112,-3.38378 2.5488,-1.18652 6.1083,-1.18652 3.6035,0 6.1084,1.18652 2.5488,1.18652 3.9551,3.38378 1.4062,2.19726 1.582,5.31737 0.044,0.83496 0.044,1.97754 0,1.09863 -0.044,1.97753 -0.1758,3.07617 -1.5381,5.31737 -1.3183,2.19726 -3.8671,3.38378 -2.5049,1.18652 -6.2403,1.18652 z m 0,-5.36131 q 1.9776,0 2.8565,-1.18652 0.9228,-1.18652 1.0547,-3.55957 0.044,-0.65917 0.044,-1.7578 0,-1.09863 -0.044,-1.75781 -0.1319,-2.3291 -1.0547,-3.51562 -0.8789,-1.23046 -2.8565,-1.23046 -1.8896,0 -2.8564,1.23046 -0.9228,1.18652 -1.0107,3.51562 -0.044,0.65918 -0.044,1.75781 0,1.09863 0.044,1.7578 0.088,2.37305 1.0107,3.55957 0.9668,1.18652 2.8564,1.18652 z"
         id="path313" /></g></g></svg>
